<?xml version="1.0" encoding="utf-8" standalone="no"?>
<!DOCTYPE svg PUBLIC "-//W3C//DTD SVG 1.1//EN"
  "http://www.w3.org/Graphics/SVG/1.1/DTD/svg11.dtd">
<svg xmlns:xlink="http://www.w3.org/1999/xlink" width="402.802812pt" height="297.501184pt" viewBox="0 0 402.802812 297.501184" xmlns="http://www.w3.org/2000/svg" version="1.1">
 <metadata>
  <rdf:RDF xmlns:dc="http://purl.org/dc/elements/1.1/" xmlns:cc="http://creativecommons.org/ns#" xmlns:rdf="http://www.w3.org/1999/02/22-rdf-syntax-ns#">
   <cc:Work>
    <dc:type rdf:resource="http://purl.org/dc/dcmitype/StillImage"/>
    <dc:date>2024-02-23T22:08:58.244135</dc:date>
    <dc:format>image/svg+xml</dc:format>
    <dc:creator>
     <cc:Agent>
      <dc:title>Matplotlib v3.8.2, https://matplotlib.org/</dc:title>
     </cc:Agent>
    </dc:creator>
   </cc:Work>
  </rdf:RDF>
 </metadata>
 <defs>
  <style type="text/css">*{stroke-linejoin: round; stroke-linecap: butt}</style>
 </defs>
 <g id="figure_1">
  <g id="patch_1">
   <path d="M 0 297.501184 
L 402.802812 297.501184 
L 402.802812 0 
L 0 0 
z
" style="fill: #ffffff"/>
  </g>
  <g id="axes_1">
   <g id="patch_2">
    <path d="M 38.482813 273.623059 
L 395.602813 273.623059 
L 395.602813 7.511059 
L 38.482813 7.511059 
z
" style="fill: #ffffff"/>
   </g>
   <g id="matplotlib.axis_1">
    <g id="xtick_1">
     <g id="line2d_1">
      <defs>
       <path id="m8ad32328c7" d="M 0 0 
L 0 3.5 
" style="stroke: #000000; stroke-width: 0.8"/>
      </defs>
      <g>
       <use xlink:href="#m8ad32328c7" x="46.108144" y="273.623059" style="stroke: #000000; stroke-width: 0.8"/>
      </g>
     </g>
     <g id="text_1">
      <!-- −2 -->
      <g transform="translate(38.73705 288.221497) scale(0.1 -0.1)">
       <defs>
        <path id="DejaVuSans-2212" d="M 678 2272 
L 4684 2272 
L 4684 1741 
L 678 1741 
L 678 2272 
z
" transform="scale(0.015625)"/>
        <path id="DejaVuSans-32" d="M 1228 531 
L 3431 531 
L 3431 0 
L 469 0 
L 469 531 
Q 828 903 1448 1529 
Q 2069 2156 2228 2338 
Q 2531 2678 2651 2914 
Q 2772 3150 2772 3378 
Q 2772 3750 2511 3984 
Q 2250 4219 1831 4219 
Q 1534 4219 1204 4116 
Q 875 4013 500 3803 
L 500 4441 
Q 881 4594 1212 4672 
Q 1544 4750 1819 4750 
Q 2544 4750 2975 4387 
Q 3406 4025 3406 3419 
Q 3406 3131 3298 2873 
Q 3191 2616 2906 2266 
Q 2828 2175 2409 1742 
Q 1991 1309 1228 531 
z
" transform="scale(0.015625)"/>
       </defs>
       <use xlink:href="#DejaVuSans-2212"/>
       <use xlink:href="#DejaVuSans-32" x="83.789062"/>
      </g>
     </g>
    </g>
    <g id="xtick_2">
     <g id="line2d_2">
      <g>
       <use xlink:href="#m8ad32328c7" x="111.039053" y="273.623059" style="stroke: #000000; stroke-width: 0.8"/>
      </g>
     </g>
     <g id="text_2">
      <!-- −1 -->
      <g transform="translate(103.66796 288.221497) scale(0.1 -0.1)">
       <defs>
        <path id="DejaVuSans-31" d="M 794 531 
L 1825 531 
L 1825 4091 
L 703 3866 
L 703 4441 
L 1819 4666 
L 2450 4666 
L 2450 531 
L 3481 531 
L 3481 0 
L 794 0 
L 794 531 
z
" transform="scale(0.015625)"/>
       </defs>
       <use xlink:href="#DejaVuSans-2212"/>
       <use xlink:href="#DejaVuSans-31" x="83.789062"/>
      </g>
     </g>
    </g>
    <g id="xtick_3">
     <g id="line2d_3">
      <g>
       <use xlink:href="#m8ad32328c7" x="175.969962" y="273.623059" style="stroke: #000000; stroke-width: 0.8"/>
      </g>
     </g>
     <g id="text_3">
      <!-- 0 -->
      <g transform="translate(172.788712 288.221497) scale(0.1 -0.1)">
       <defs>
        <path id="DejaVuSans-30" d="M 2034 4250 
Q 1547 4250 1301 3770 
Q 1056 3291 1056 2328 
Q 1056 1369 1301 889 
Q 1547 409 2034 409 
Q 2525 409 2770 889 
Q 3016 1369 3016 2328 
Q 3016 3291 2770 3770 
Q 2525 4250 2034 4250 
z
M 2034 4750 
Q 2819 4750 3233 4129 
Q 3647 3509 3647 2328 
Q 3647 1150 3233 529 
Q 2819 -91 2034 -91 
Q 1250 -91 836 529 
Q 422 1150 422 2328 
Q 422 3509 836 4129 
Q 1250 4750 2034 4750 
z
" transform="scale(0.015625)"/>
       </defs>
       <use xlink:href="#DejaVuSans-30"/>
      </g>
     </g>
    </g>
    <g id="xtick_4">
     <g id="line2d_4">
      <g>
       <use xlink:href="#m8ad32328c7" x="240.900871" y="273.623059" style="stroke: #000000; stroke-width: 0.8"/>
      </g>
     </g>
     <g id="text_4">
      <!-- 1 -->
      <g transform="translate(237.719621 288.221497) scale(0.1 -0.1)">
       <use xlink:href="#DejaVuSans-31"/>
      </g>
     </g>
    </g>
    <g id="xtick_5">
     <g id="line2d_5">
      <g>
       <use xlink:href="#m8ad32328c7" x="305.831781" y="273.623059" style="stroke: #000000; stroke-width: 0.8"/>
      </g>
     </g>
     <g id="text_5">
      <!-- 2 -->
      <g transform="translate(302.650531 288.221497) scale(0.1 -0.1)">
       <use xlink:href="#DejaVuSans-32"/>
      </g>
     </g>
    </g>
    <g id="xtick_6">
     <g id="line2d_6">
      <g>
       <use xlink:href="#m8ad32328c7" x="370.76269" y="273.623059" style="stroke: #000000; stroke-width: 0.8"/>
      </g>
     </g>
     <g id="text_6">
      <!-- 3 -->
      <g transform="translate(367.58144 288.221497) scale(0.1 -0.1)">
       <defs>
        <path id="DejaVuSans-33" d="M 2597 2516 
Q 3050 2419 3304 2112 
Q 3559 1806 3559 1356 
Q 3559 666 3084 287 
Q 2609 -91 1734 -91 
Q 1441 -91 1130 -33 
Q 819 25 488 141 
L 488 750 
Q 750 597 1062 519 
Q 1375 441 1716 441 
Q 2309 441 2620 675 
Q 2931 909 2931 1356 
Q 2931 1769 2642 2001 
Q 2353 2234 1838 2234 
L 1294 2234 
L 1294 2753 
L 1863 2753 
Q 2328 2753 2575 2939 
Q 2822 3125 2822 3475 
Q 2822 3834 2567 4026 
Q 2313 4219 1838 4219 
Q 1578 4219 1281 4162 
Q 984 4106 628 3988 
L 628 4550 
Q 988 4650 1302 4700 
Q 1616 4750 1894 4750 
Q 2613 4750 3031 4423 
Q 3450 4097 3450 3541 
Q 3450 3153 3228 2886 
Q 3006 2619 2597 2516 
z
" transform="scale(0.015625)"/>
       </defs>
       <use xlink:href="#DejaVuSans-33"/>
      </g>
     </g>
    </g>
   </g>
   <g id="matplotlib.axis_2">
    <g id="ytick_1">
     <g id="line2d_7">
      <defs>
       <path id="m331a2590c1" d="M 0 0 
L -3.5 0 
" style="stroke: #000000; stroke-width: 0.8"/>
      </defs>
      <g>
       <use xlink:href="#m331a2590c1" x="38.482813" y="270.722855" style="stroke: #000000; stroke-width: 0.8"/>
      </g>
     </g>
     <g id="text_7">
      <!-- −2.0 -->
      <g transform="translate(7.2 274.522074) scale(0.1 -0.1)">
       <defs>
        <path id="DejaVuSans-2e" d="M 684 794 
L 1344 794 
L 1344 0 
L 684 0 
L 684 794 
z
" transform="scale(0.015625)"/>
       </defs>
       <use xlink:href="#DejaVuSans-2212"/>
       <use xlink:href="#DejaVuSans-32" x="83.789062"/>
       <use xlink:href="#DejaVuSans-2e" x="147.412109"/>
       <use xlink:href="#DejaVuSans-30" x="179.199219"/>
      </g>
     </g>
    </g>
    <g id="ytick_2">
     <g id="line2d_8">
      <g>
       <use xlink:href="#m331a2590c1" x="38.482813" y="238.257401" style="stroke: #000000; stroke-width: 0.8"/>
      </g>
     </g>
     <g id="text_8">
      <!-- −1.5 -->
      <g transform="translate(7.2 242.056619) scale(0.1 -0.1)">
       <defs>
        <path id="DejaVuSans-35" d="M 691 4666 
L 3169 4666 
L 3169 4134 
L 1269 4134 
L 1269 2991 
Q 1406 3038 1543 3061 
Q 1681 3084 1819 3084 
Q 2600 3084 3056 2656 
Q 3513 2228 3513 1497 
Q 3513 744 3044 326 
Q 2575 -91 1722 -91 
Q 1428 -91 1123 -41 
Q 819 9 494 109 
L 494 744 
Q 775 591 1075 516 
Q 1375 441 1709 441 
Q 2250 441 2565 725 
Q 2881 1009 2881 1497 
Q 2881 1984 2565 2268 
Q 2250 2553 1709 2553 
Q 1456 2553 1204 2497 
Q 953 2441 691 2322 
L 691 4666 
z
" transform="scale(0.015625)"/>
       </defs>
       <use xlink:href="#DejaVuSans-2212"/>
       <use xlink:href="#DejaVuSans-31" x="83.789062"/>
       <use xlink:href="#DejaVuSans-2e" x="147.412109"/>
       <use xlink:href="#DejaVuSans-35" x="179.199219"/>
      </g>
     </g>
    </g>
    <g id="ytick_3">
     <g id="line2d_9">
      <g>
       <use xlink:href="#m331a2590c1" x="38.482813" y="205.791946" style="stroke: #000000; stroke-width: 0.8"/>
      </g>
     </g>
     <g id="text_9">
      <!-- −1.0 -->
      <g transform="translate(7.2 209.591165) scale(0.1 -0.1)">
       <use xlink:href="#DejaVuSans-2212"/>
       <use xlink:href="#DejaVuSans-31" x="83.789062"/>
       <use xlink:href="#DejaVuSans-2e" x="147.412109"/>
       <use xlink:href="#DejaVuSans-30" x="179.199219"/>
      </g>
     </g>
    </g>
    <g id="ytick_4">
     <g id="line2d_10">
      <g>
       <use xlink:href="#m331a2590c1" x="38.482813" y="173.326491" style="stroke: #000000; stroke-width: 0.8"/>
      </g>
     </g>
     <g id="text_10">
      <!-- −0.5 -->
      <g transform="translate(7.2 177.12571) scale(0.1 -0.1)">
       <use xlink:href="#DejaVuSans-2212"/>
       <use xlink:href="#DejaVuSans-30" x="83.789062"/>
       <use xlink:href="#DejaVuSans-2e" x="147.412109"/>
       <use xlink:href="#DejaVuSans-35" x="179.199219"/>
      </g>
     </g>
    </g>
    <g id="ytick_5">
     <g id="line2d_11">
      <g>
       <use xlink:href="#m331a2590c1" x="38.482813" y="140.861037" style="stroke: #000000; stroke-width: 0.8"/>
      </g>
     </g>
     <g id="text_11">
      <!-- 0.0 -->
      <g transform="translate(15.579688 144.660256) scale(0.1 -0.1)">
       <use xlink:href="#DejaVuSans-30"/>
       <use xlink:href="#DejaVuSans-2e" x="63.623047"/>
       <use xlink:href="#DejaVuSans-30" x="95.410156"/>
      </g>
     </g>
    </g>
    <g id="ytick_6">
     <g id="line2d_12">
      <g>
       <use xlink:href="#m331a2590c1" x="38.482813" y="108.395582" style="stroke: #000000; stroke-width: 0.8"/>
      </g>
     </g>
     <g id="text_12">
      <!-- 0.5 -->
      <g transform="translate(15.579688 112.194801) scale(0.1 -0.1)">
       <use xlink:href="#DejaVuSans-30"/>
       <use xlink:href="#DejaVuSans-2e" x="63.623047"/>
       <use xlink:href="#DejaVuSans-35" x="95.410156"/>
      </g>
     </g>
    </g>
    <g id="ytick_7">
     <g id="line2d_13">
      <g>
       <use xlink:href="#m331a2590c1" x="38.482813" y="75.930128" style="stroke: #000000; stroke-width: 0.8"/>
      </g>
     </g>
     <g id="text_13">
      <!-- 1.0 -->
      <g transform="translate(15.579688 79.729347) scale(0.1 -0.1)">
       <use xlink:href="#DejaVuSans-31"/>
       <use xlink:href="#DejaVuSans-2e" x="63.623047"/>
       <use xlink:href="#DejaVuSans-30" x="95.410156"/>
      </g>
     </g>
    </g>
    <g id="ytick_8">
     <g id="line2d_14">
      <g>
       <use xlink:href="#m331a2590c1" x="38.482813" y="43.464673" style="stroke: #000000; stroke-width: 0.8"/>
      </g>
     </g>
     <g id="text_14">
      <!-- 1.5 -->
      <g transform="translate(15.579688 47.263892) scale(0.1 -0.1)">
       <use xlink:href="#DejaVuSans-31"/>
       <use xlink:href="#DejaVuSans-2e" x="63.623047"/>
       <use xlink:href="#DejaVuSans-35" x="95.410156"/>
      </g>
     </g>
    </g>
    <g id="ytick_9">
     <g id="line2d_15">
      <g>
       <use xlink:href="#m331a2590c1" x="38.482813" y="10.999219" style="stroke: #000000; stroke-width: 0.8"/>
      </g>
     </g>
     <g id="text_15">
      <!-- 2.0 -->
      <g transform="translate(15.579688 14.798438) scale(0.1 -0.1)">
       <use xlink:href="#DejaVuSans-32"/>
       <use xlink:href="#DejaVuSans-2e" x="63.623047"/>
       <use xlink:href="#DejaVuSans-30" x="95.410156"/>
      </g>
     </g>
    </g>
   </g>
   <g id="line2d_16">
    <path d="M 216.901024 214.104333 
L 215.738012 214.002581 
L 215.411658 213.915135 
L 214.283984 213.612977 
L 213.977773 213.470188 
L 212.9197 212.976796 
L 212.642936 212.783005 
L 211.686613 212.113382 
L 211.447705 211.874475 
L 210.62219 211.048965 
L 210.428398 210.772201 
L 209.758773 209.815878 
L 209.615985 209.509665 
L 209.122597 208.451584 
L 209.035151 208.12523 
L 208.732992 206.997556 
L 208.703545 206.660976 
L 208.601795 205.497968 
L 208.631242 205.161388 
L 208.732992 203.998376 
L 208.820438 203.672023 
L 209.122597 202.544348 
L 209.265386 202.238138 
L 209.758773 201.180066 
L 209.952566 200.903302 
L 210.62219 199.946979 
L 210.861098 199.708071 
L 211.686613 198.882555 
L 211.963377 198.688762 
L 212.9197 198.019136 
L 213.225911 197.876348 
L 214.283984 197.382963 
L 214.610338 197.295515 
L 215.738012 196.993352 
L 216.074593 196.963906 
L 217.237605 196.86216 
L 217.574186 196.891606 
L 218.737198 196.993352 
L 219.063552 197.080799 
L 220.191226 197.382963 
L 220.497437 197.525751 
L 221.555511 198.019136 
L 221.832275 198.212929 
L 222.788598 198.882555 
L 223.027505 199.121463 
L 223.85302 199.946979 
L 224.046812 200.223743 
L 224.716437 201.180066 
L 224.859226 201.486277 
L 225.352614 202.544348 
L 225.44006 202.870702 
L 225.742219 203.998376 
L 225.771666 204.334957 
L 225.873417 205.497968 
L 225.84397 205.834548 
L 225.742219 206.997556 
L 225.654773 207.32391 
L 225.352614 208.451584 
L 225.209825 208.757797 
L 224.716437 209.815878 
L 224.522645 210.092642 
L 223.85302 211.048965 
L 223.614112 211.287871 
L 222.788598 212.113382 
L 222.511834 212.307173 
L 221.555511 212.976796 
L 221.2493 213.119586 
L 220.191226 213.612977 
L 219.864872 213.700423 
L 218.737198 214.002581 
L 218.400617 214.032028 
L 217.237605 214.13378 
L 216.901024 214.104333 
" clip-path="url(#pfe961d09b8)" style="fill: none; stroke: #1f77b4; stroke-linecap: square"/>
   </g>
   <g id="line2d_17">
    <path d="M 216.901024 84.242512 
L 215.738012 84.140767 
L 215.411658 84.053319 
L 214.283984 83.751155 
L 213.977773 83.608367 
L 212.9197 83.114982 
L 212.642936 82.921189 
L 211.686613 82.251563 
L 211.447705 82.012655 
L 210.62219 81.187139 
L 210.428398 80.910375 
L 209.758773 79.954052 
L 209.615985 79.647841 
L 209.122597 78.58977 
L 209.035151 78.263416 
L 208.732992 77.135742 
L 208.703545 76.799161 
L 208.601795 75.63615 
L 208.631242 75.29957 
L 208.732992 74.136562 
L 208.820438 73.810208 
L 209.122597 72.682534 
L 209.265386 72.376321 
L 209.758773 71.31824 
L 209.952566 71.041476 
L 210.62219 70.085153 
L 210.861098 69.846247 
L 211.686613 69.020736 
L 211.963377 68.826945 
L 212.9197 68.157322 
L 213.225911 68.014532 
L 214.283984 67.521141 
L 214.610338 67.433695 
L 215.738012 67.131537 
L 216.074593 67.10209 
L 217.237605 67.000338 
L 217.574186 67.029785 
L 218.737198 67.131537 
L 219.063552 67.218983 
L 220.191226 67.521141 
L 220.497437 67.663931 
L 221.555511 68.157322 
L 221.832275 68.351114 
L 222.788598 69.020736 
L 223.027505 69.259643 
L 223.85302 70.085153 
L 224.046812 70.361917 
L 224.716437 71.31824 
L 224.859226 71.624453 
L 225.352614 72.682534 
L 225.44006 73.008888 
L 225.742219 74.136562 
L 225.771666 74.473142 
L 225.873417 75.63615 
L 225.84397 75.972731 
L 225.742219 77.135742 
L 225.654773 77.462096 
L 225.352614 78.58977 
L 225.209825 78.89598 
L 224.716437 79.954052 
L 224.522645 80.230816 
L 223.85302 81.187139 
L 223.614112 81.426047 
L 222.788598 82.251563 
L 222.511834 82.445356 
L 221.555511 83.114982 
L 221.2493 83.25777 
L 220.191226 83.751155 
L 219.864872 83.838603 
L 218.737198 84.140767 
L 218.400617 84.170212 
L 217.237605 84.271958 
L 216.901024 84.242512 
" clip-path="url(#pfe961d09b8)" style="fill: none; stroke: #ff7f0e; stroke-linecap: square"/>
   </g>
   <g id="line2d_18">
    <path d="M 298.818939 74.473142 
L 298.920691 75.63615 
L 298.891244 75.972731 
L 298.789492 77.135742 
L 298.702046 77.462096 
L 298.399888 78.58977 
L 298.257101 78.89598 
L 297.763715 79.954052 
L 297.569922 80.230816 
L 296.900293 81.187139 
L 296.661385 81.426047 
L 295.835868 82.251563 
L 295.559106 82.445356 
L 294.602789 83.114982 
L 294.296576 83.25777 
L 293.238495 83.751155 
L 292.912141 83.838603 
L 291.784467 84.140767 
L 291.447887 84.170212 
L 290.284879 84.271958 
L 289.9483 84.242512 
L 288.785291 84.140767 
L 288.458936 84.053319 
L 287.331256 83.751155 
L 287.025044 83.608367 
L 285.966969 83.114982 
L 285.690205 82.921189 
L 284.733882 82.251563 
L 284.494976 82.012655 
L 283.669466 81.187139 
L 283.475674 80.910375 
L 282.806051 79.954052 
L 282.663261 79.647841 
L 282.16987 78.58977 
L 282.082424 78.263416 
L 281.780263 77.135742 
L 281.750817 76.799161 
L 281.649071 75.63615 
L 281.678517 75.29957 
L 281.780263 74.136562 
L 281.867709 73.810208 
L 282.16987 72.682534 
L 282.31266 72.376321 
L 282.806051 71.31824 
L 282.999843 71.041476 
L 283.669466 70.085153 
L 283.908372 69.846247 
L 284.733882 69.020736 
L 285.010647 68.826945 
L 285.966969 68.157322 
L 286.273181 68.014532 
L 287.331256 67.521141 
L 287.657611 67.433695 
L 288.785291 67.131537 
L 289.121871 67.10209 
L 290.284879 67.000338 
L 290.621459 67.029785 
L 291.784467 67.131537 
L 292.110821 67.218983 
L 293.238495 67.521141 
L 293.544708 67.663931 
L 294.602789 68.157322 
L 294.879552 68.351114 
L 295.835868 69.020736 
L 296.074777 69.259643 
L 296.900293 70.085153 
L 297.094086 70.361917 
L 297.763715 71.31824 
L 297.906503 71.624453 
L 298.399888 72.682534 
L 298.487334 73.008888 
L 298.789492 74.136562 
L 298.818939 74.473142 
" clip-path="url(#pfe961d09b8)" style="fill: none; stroke: #2ca02c; stroke-linecap: square"/>
   </g>
   <g id="line2d_19">
    <path d="M 298.818939 204.334957 
L 298.920691 205.497968 
L 298.891244 205.834548 
L 298.789492 206.997556 
L 298.702046 207.32391 
L 298.399888 208.451584 
L 298.257101 208.757797 
L 297.763715 209.815878 
L 297.569922 210.092642 
L 296.900293 211.048965 
L 296.661385 211.287871 
L 295.835868 212.113382 
L 295.559106 212.307173 
L 294.602789 212.976796 
L 294.296576 213.119586 
L 293.238495 213.612977 
L 292.912141 213.700423 
L 291.784467 214.002581 
L 291.447887 214.032028 
L 290.284879 214.13378 
L 289.9483 214.104333 
L 288.785291 214.002581 
L 288.458936 213.915135 
L 287.331256 213.612977 
L 287.025044 213.470188 
L 285.966969 212.976796 
L 285.690205 212.783005 
L 284.733882 212.113382 
L 284.494976 211.874475 
L 283.669466 211.048965 
L 283.475674 210.772201 
L 282.806051 209.815878 
L 282.663261 209.509665 
L 282.16987 208.451584 
L 282.082424 208.12523 
L 281.780263 206.997556 
L 281.750817 206.660976 
L 281.649071 205.497968 
L 281.678517 205.161388 
L 281.780263 203.998376 
L 281.867709 203.672023 
L 282.16987 202.544348 
L 282.31266 202.238138 
L 282.806051 201.180066 
L 282.999843 200.903302 
L 283.669466 199.946979 
L 283.908372 199.708071 
L 284.733882 198.882555 
L 285.010647 198.688762 
L 285.966969 198.019136 
L 286.273181 197.876348 
L 287.331256 197.382963 
L 287.657611 197.295515 
L 288.785291 196.993352 
L 289.121871 196.963906 
L 290.284879 196.86216 
L 290.621459 196.891606 
L 291.784467 196.993352 
L 292.110821 197.080799 
L 293.238495 197.382963 
L 293.544708 197.525751 
L 294.602789 198.019136 
L 294.879552 198.212929 
L 295.835868 198.882555 
L 296.074777 199.121463 
L 296.900293 199.946979 
L 297.094086 200.223743 
L 297.763715 201.180066 
L 297.906503 201.486277 
L 298.399888 202.544348 
L 298.487334 202.870702 
L 298.789492 203.998376 
L 298.818939 204.334957 
" clip-path="url(#pfe961d09b8)" style="fill: none; stroke: #d62728; stroke-linecap: square"/>
   </g>
   <g id="line2d_20">
    <path d="M 69.643458 84.140767 
L 69.317107 84.053319 
L 68.189445 83.751155 
L 67.883234 83.608367 
L 66.825159 83.114982 
L 66.548391 82.921189 
L 65.592057 82.251563 
L 65.353148 82.012655 
L 64.527632 81.187139 
L 64.333842 80.910375 
L 63.664225 79.954052 
L 63.521436 79.647841 
L 63.028044 78.58977 
L 62.940602 78.263416 
L 62.638456 77.135742 
L 62.609009 76.799161 
L 62.507257 75.63615 
L 62.536704 75.29957 
L 62.638456 74.136562 
L 62.725898 73.810208 
L 63.028044 72.682534 
L 63.170834 72.376321 
L 63.664225 71.31824 
L 63.858015 71.041476 
L 64.527632 70.085153 
L 64.76654 69.846247 
L 65.592057 69.020736 
L 65.868824 68.826945 
L 66.825159 68.157322 
L 67.131371 68.014532 
L 68.189445 67.521141 
L 68.515796 67.433695 
L 69.643458 67.131537 
L 69.980041 67.10209 
L 71.143061 67.000338 
L 71.479641 67.029785 
L 72.642649 67.131537 
L 72.969003 67.218983 
L 74.096677 67.521141 
L 74.402889 67.663931 
L 75.460963 68.157322 
L 75.737727 68.351114 
L 76.69405 69.020736 
L 76.932958 69.259643 
L 77.758475 70.085153 
L 77.952265 70.361917 
L 78.621882 71.31824 
L 78.764671 71.624453 
L 79.258062 72.682534 
L 79.345508 73.008888 
L 79.647666 74.136562 
L 79.677114 74.473142 
L 79.778865 75.63615 
L 79.749418 75.972731 
L 79.647666 77.135742 
L 79.56022 77.462096 
L 79.258062 78.58977 
L 79.115273 78.89598 
L 78.621882 79.954052 
L 78.428092 80.230816 
L 77.758475 81.187139 
L 77.519567 81.426047 
L 76.69405 82.251563 
L 76.417286 82.445356 
L 75.460963 83.114982 
L 75.154752 83.25777 
L 74.096677 83.751155 
L 73.770323 83.838603 
L 72.642649 84.140767 
L 72.306069 84.170212 
L 71.143061 84.271958 
L 70.806478 84.242512 
L 69.643458 84.140767 
" clip-path="url(#pfe961d09b8)" style="fill: none; stroke: #9467bd; stroke-linecap: square"/>
   </g>
   <g id="line2d_21">
    <path d="M 69.643458 214.002581 
L 69.317107 213.915135 
L 68.189445 213.612977 
L 67.883234 213.470188 
L 66.825159 212.976796 
L 66.548391 212.783005 
L 65.592057 212.113382 
L 65.353148 211.874475 
L 64.527632 211.048965 
L 64.333842 210.772201 
L 63.664225 209.815878 
L 63.521436 209.509665 
L 63.028044 208.451584 
L 62.940602 208.12523 
L 62.638456 206.997556 
L 62.609009 206.660976 
L 62.507257 205.497968 
L 62.536704 205.161388 
L 62.638456 203.998376 
L 62.725898 203.672023 
L 63.028044 202.544348 
L 63.170834 202.238138 
L 63.664225 201.180066 
L 63.858015 200.903302 
L 64.527632 199.946979 
L 64.76654 199.708071 
L 65.592057 198.882555 
L 65.868824 198.688762 
L 66.825159 198.019136 
L 67.131371 197.876348 
L 68.189445 197.382963 
L 68.515796 197.295515 
L 69.643458 196.993352 
L 69.980041 196.963906 
L 71.143061 196.86216 
L 71.479641 196.891606 
L 72.642649 196.993352 
L 72.969003 197.080799 
L 74.096677 197.382963 
L 74.402889 197.525751 
L 75.460963 198.019136 
L 75.737727 198.212929 
L 76.69405 198.882555 
L 76.932958 199.121463 
L 77.758475 199.946979 
L 77.952265 200.223743 
L 78.621882 201.180066 
L 78.764671 201.486277 
L 79.258062 202.544348 
L 79.345508 202.870702 
L 79.647666 203.998376 
L 79.677114 204.334957 
L 79.778865 205.497968 
L 79.749418 205.834548 
L 79.647666 206.997556 
L 79.56022 207.32391 
L 79.258062 208.451584 
L 79.115273 208.757797 
L 78.621882 209.815878 
L 78.428092 210.092642 
L 77.758475 211.048965 
L 77.519567 211.287871 
L 76.69405 212.113382 
L 76.417286 212.307173 
L 75.460963 212.976796 
L 75.154752 213.119586 
L 74.096677 213.612977 
L 73.770323 213.700423 
L 72.642649 214.002581 
L 72.306069 214.032028 
L 71.143061 214.13378 
L 70.806478 214.104333 
L 69.643458 214.002581 
" clip-path="url(#pfe961d09b8)" style="fill: none; stroke: #8c564b; stroke-linecap: square"/>
   </g>
   <g id="line2d_22">
    <path d="M 136.711498 209.815878 
L 137.381121 210.772201 
L 137.574913 211.048965 
L 138.400429 211.874475 
L 138.639337 212.113382 
L 139.595666 212.783005 
L 139.872432 212.976796 
L 140.9305 213.470188 
L 141.23671 213.612977 
L 142.364384 213.915135 
L 142.690738 214.002581 
L 143.853752 214.104333 
L 144.190334 214.13378 
L 145.353348 214.032028 
L 145.689929 214.002581 
L 146.817604 213.700423 
L 147.143957 213.612977 
L 148.202026 213.119586 
L 148.508236 212.976796 
L 149.464559 212.307173 
L 149.741323 212.113382 
L 150.566839 211.287871 
L 150.805747 211.048965 
L 151.47537 210.092642 
L 151.669162 209.815878 
L 152.162553 208.757797 
L 152.305343 208.451584 
L 152.607501 207.32391 
L 152.694947 206.997556 
L 152.796698 205.834548 
L 152.826146 205.497968 
L 152.724394 204.334957 
L 152.694947 203.998376 
L 152.392789 202.870702 
L 152.305343 202.544348 
L 151.811952 201.486277 
L 151.669162 201.180066 
L 150.999539 200.223743 
L 150.805747 199.946979 
L 149.980231 199.121463 
L 149.741323 198.882555 
L 148.785 198.212929 
L 148.508236 198.019136 
L 147.450167 197.525751 
L 147.143957 197.382963 
L 146.016283 197.080799 
L 145.689929 196.993352 
L 144.526915 196.891606 
L 144.190334 196.86216 
L 143.02732 196.963906 
L 142.690738 196.993352 
L 141.563064 197.295515 
L 141.23671 197.382963 
L 140.178642 197.876348 
L 139.872432 198.019136 
L 138.916103 198.688762 
L 138.639337 198.882555 
L 137.813821 199.708071 
L 137.574913 199.946979 
L 136.90529 200.903302 
L 136.711498 201.180066 
L 136.218107 202.238138 
L 136.075317 202.544348 
L 135.773165 203.672023 
L 135.685721 203.998376 
L 135.583969 205.161388 
L 135.554522 205.497968 
L 135.656274 206.660976 
L 135.685721 206.997556 
L 135.987873 208.12523 
L 136.075317 208.451584 
L 136.568708 209.509665 
L 136.711498 209.815878 
" clip-path="url(#pfe961d09b8)" style="fill: none; stroke: #e377c2; stroke-linecap: square"/>
   </g>
   <g id="line2d_23">
    <path d="M 136.711498 79.954052 
L 137.381121 80.910375 
L 137.574913 81.187139 
L 138.400429 82.012655 
L 138.639337 82.251563 
L 139.595666 82.921189 
L 139.872432 83.114982 
L 140.9305 83.608367 
L 141.23671 83.751155 
L 142.364384 84.053319 
L 142.690738 84.140767 
L 143.853752 84.242512 
L 144.190334 84.271958 
L 145.353348 84.170212 
L 145.689929 84.140767 
L 146.817604 83.838603 
L 147.143957 83.751155 
L 148.202026 83.25777 
L 148.508236 83.114982 
L 149.464559 82.445356 
L 149.741323 82.251563 
L 150.566839 81.426047 
L 150.805747 81.187139 
L 151.47537 80.230816 
L 151.669162 79.954052 
L 152.162553 78.89598 
L 152.305343 78.58977 
L 152.607501 77.462096 
L 152.694947 77.135742 
L 152.796698 75.972731 
L 152.826146 75.63615 
L 152.724394 74.473142 
L 152.694947 74.136562 
L 152.392789 73.008888 
L 152.305343 72.682534 
L 151.811952 71.624453 
L 151.669162 71.31824 
L 150.999539 70.361917 
L 150.805747 70.085153 
L 149.980231 69.259643 
L 149.741323 69.020736 
L 148.785 68.351114 
L 148.508236 68.157322 
L 147.450167 67.663931 
L 147.143957 67.521141 
L 146.016283 67.218983 
L 145.689929 67.131537 
L 144.526915 67.029785 
L 144.190334 67.000338 
L 143.02732 67.10209 
L 142.690738 67.131537 
L 141.563064 67.433695 
L 141.23671 67.521141 
L 140.178642 68.014532 
L 139.872432 68.157322 
L 138.916103 68.826945 
L 138.639337 69.020736 
L 137.813821 69.846247 
L 137.574913 70.085153 
L 136.90529 71.041476 
L 136.711498 71.31824 
L 136.218107 72.376321 
L 136.075317 72.682534 
L 135.773165 73.810208 
L 135.685721 74.136562 
L 135.583969 75.29957 
L 135.554522 75.63615 
L 135.656274 76.799161 
L 135.685721 77.135742 
L 135.987873 78.263416 
L 136.075317 78.58977 
L 136.568708 79.647841 
L 136.711498 79.954052 
" clip-path="url(#pfe961d09b8)" style="fill: none; stroke: #7f7f7f; stroke-linecap: square"/>
   </g>
   <g id="line2d_24">
    <path d="M 64.817973 185.207059 
L 56.365548 185.207059 
L 54.71554 185.207059 
L 54.71554 191.00668 
L 54.71554 219.551541 
L 54.71554 221.140571 
L 54.71554 221.730695 
L 143.699852 221.730695 
L 149.556695 221.730695 
L 156.607865 221.730695 
L 161.512309 221.730695 
L 166.527161 221.730695 
L 167.303073 221.730695 
L 169.289409 221.730695 
L 169.289409 142.225845 
L 169.289409 59.403423 
L 166.527161 59.403423 
L 164.866143 59.403423 
L 156.607865 59.403423 
L 149.556695 59.403423 
L 54.71554 59.403423 
L 54.71554 80.057779 
L 54.71554 95.761356 
L 54.71554 95.927059 
L 63.167965 95.927059 
L 64.817973 95.927059 
L 69.534774 96.339723 
L 70.455546 96.420279 
L 75.029017 97.645742 
L 75.921809 97.884966 
L 80.21301 99.885983 
L 81.050701 100.276604 
L 84.929241 102.992381 
L 85.686376 103.522531 
L 89.03439 106.870552 
L 89.68796 107.524123 
L 92.403734 111.402654 
L 92.933883 112.159786 
L 94.934904 116.450986 
L 95.325525 117.288676 
L 96.550988 121.862153 
L 96.790212 122.754947 
L 97.202872 127.471742 
L 97.283428 128.392514 
L 97.283428 148.764722 
L 97.283428 152.741605 
L 96.870768 157.4584 
L 96.790212 158.379172 
L 95.564749 162.952649 
L 95.325525 163.845442 
L 93.324505 168.136642 
L 92.933883 168.974332 
L 90.218109 172.852863 
L 89.68796 173.609995 
L 86.339946 176.958016 
L 85.686376 177.611587 
L 81.807835 180.327364 
L 81.050701 180.857514 
L 76.7595 182.858532 
L 75.921809 183.249152 
L 71.348339 184.474615 
L 70.455546 184.713839 
L 65.738746 185.126503 
L 64.817973 185.207059 
" clip-path="url(#pfe961d09b8)" style="fill: none; stroke: #bcbd22; stroke-linecap: square"/>
   </g>
   <g id="line2d_25">
    <path d="M 194.721044 59.403423 
L 192.138528 59.403423 
L 192.138528 138.908273 
L 192.138528 221.730695 
L 195.983949 221.730695 
L 203.113888 221.730695 
L 212.277958 221.730695 
L 379.370085 221.730695 
L 379.370085 221.564992 
L 379.370085 212.186177 
L 379.370085 207.253422 
L 379.370085 185.537511 
L 379.370085 129.260446 
L 379.370085 93.867605 
L 379.370085 68.947941 
L 379.370085 65.203043 
L 379.370085 59.403423 
L 223.738258 59.403423 
L 212.277958 59.403423 
L 203.113888 59.403423 
L 195.983949 59.403423 
L 194.721044 59.403423 
" clip-path="url(#pfe961d09b8)" style="fill: none; stroke: #17becf; stroke-linecap: square"/>
   </g>
   <g id="line2d_26">
    <path d="M 133.270864 140.737485 
L 133.301974 132.721506 
L 132.913208 119.137147 
L 126.130698 111.283902 
L 118.348295 101.132962 
L 112.420604 92.476016 
L 109.424499 87.509599 
L 104.432758 85.453308 
L 98.137191 77.834501 
L 94.149914 73.868332 
L 91.315968 71.384744 
L 88.213113 69.05835 
L 85.424233 67.278612 
L 81.469891 65.366828 
L 79.06969 64.457605 
L 77.170931 63.864575 
L 76.824757 63.730841 
L 74.943024 63.497978 
L 73.754707 63.195041 
L 71.699875 63.203413 
L 70.684656 63.062738 
L 69.56969 63.25406 
L 67.398402 63.390024 
L 65.212654 63.881044 
L 64.365588 64.031408 
L 62.947184 64.569538 
L 61.20642 65.124112 
L 60.664956 65.402355 
L 60.019709 64.924661 
L 58.404453 62.807866 
L 56.640257 61.85461 
L 56.640257 61.85461 
" clip-path="url(#pfe961d09b8)" style="fill: none; stroke: #1f77b4; stroke-linecap: square"/>
   </g>
   <g id="line2d_27">
    <path d="M 60.613629 65.566974 
L 60.361756 66.295321 
L 59.986103 67.277661 
L 59.840416 67.622647 
L 59.683873 67.960032 
L 59.66627 67.994712 
L 59.569786 68.560016 
L 59.352633 69.599493 
L 59.26202 69.961251 
L 59.157702 70.316619 
L 59.011995 70.747448 
L 58.889989 71.064762 
L 58.879145 71.802531 
L 58.857509 72.175808 
L 58.819786 72.544775 
L 58.765978 72.909433 
L 58.561504 73.963616 
L 58.52025 74.134813 
L 58.549171 74.330116 
L 58.587101 74.700992 
L 58.607817 75.070362 
L 58.617086 76.043789 
L 58.600565 76.488437 
L 58.569664 76.858699 
L 58.524875 77.204864 
L 58.53131 77.229612 
L 58.722708 78.128651 
L 58.808732 78.646235 
L 58.852998 79.013449 
L 58.881213 79.384964 
L 58.910017 80.274914 
L 58.915936 80.2896 
L 59.126489 80.880458 
L 59.236284 81.233272 
L 59.332417 81.592456 
L 59.520105 82.424376 
L 59.668986 83.223345 
L 59.687203 83.344965 
L 59.799649 83.578851 
L 59.949615 83.920841 
L 60.251298 84.6787 
L 60.588767 85.615069 
L 60.716024 86.005639 
L 60.833353 86.406137 
L 60.835677 86.415016 
L 61.205061 87.08846 
L 61.785357 88.220139 
L 61.96727 88.598721 
L 61.98143 88.630194 
L 62.317269 88.737249 
L 62.943064 88.95443 
L 63.688079 89.234888 
L 64.228901 89.308421 
L 64.604234 89.369922 
L 64.974977 89.441267 
L 65.464665 89.549848 
L 66.778626 89.880755 
L 67.130979 89.980486 
L 67.218851 90.008142 
L 67.498251 90.024537 
L 67.868578 90.057193 
L 69.294902 90.225699 
L 69.657738 90.279661 
L 70.019615 90.344604 
L 70.38053 90.420529 
L 70.536933 90.458291 
L 71.705958 90.444405 
L 72.194296 90.452994 
L 72.563368 90.470306 
L 72.933388 90.498457 
L 74.220308 90.633713 
L 74.438316 90.662658 
L 74.863519 90.621377 
L 75.235605 90.595288 
L 75.610311 90.57898 
L 76.866937 90.557241 
L 77.744789 90.563808 
L 78.154767 90.576604 
L 78.224689 90.58041 
L 78.539903 90.536125 
L 79.78007 90.390646 
L 80.949062 90.278951 
L 81.373729 90.24706 
L 81.804096 90.223309 
L 82.639696 90.193395 
L 83.124007 90.099751 
L 84.747497 89.815963 
L 85.194761 89.7454 
L 85.648511 89.681323 
L 87.017402 89.510026 
L 87.815328 89.422019 
L 89.495274 89.032758 
L 89.982047 88.926601 
L 90.475938 88.825427 
L 91.810522 88.569198 
L 93.514691 88.262433 
L 95.748385 87.648561 
L 96.301316 87.502386 
L 96.86205 87.359851 
L 98.048737 87.069938 
L 102.685027 85.980732 
" clip-path="url(#pfe961d09b8)" style="fill: none; stroke: #ff7f0e; stroke-linecap: square"/>
   </g>
   <g id="line2d_28">
    <path d="M 61.056553 89.485066 
L 60.55375 90.240581 
L 57.91446 92.555117 
L 57.483699 93.564223 
" clip-path="url(#pfe961d09b8)" style="fill: none; stroke: #2ca02c; stroke-linecap: square"/>
   </g>
   <g id="line2d_29">
    <path d="M 110.595315 85.863166 
L 116.735416 78.323884 
L 121.832607 73.27168 
L 123.44844 71.835136 
L 126.648067 69.376331 
L 129.507424 67.504013 
L 133.414566 65.550786 
L 136.190255 64.49454 
L 138.069376 63.857503 
L 138.438476 63.782631 
L 140.228426 63.515437 
L 141.374233 63.239986 
L 143.550739 63.190774 
L 144.365872 63.058136 
L 145.681614 63.258805 
L 147.846045 63.407565 
L 149.66692 63.795354 
L 150.70062 63.961657 
L 152.89588 64.698773 
L 153.576024 64.856396 
L 155.205559 65.654303 
L 157.005612 66.464142 
L 157.695624 66.875021 
L 160.324421 68.423758 
L 161.069641 74.241072 
L 161.080211 74.607705 
L 160.913468 78.688195 
L 160.552588 81.47943 
L 159.941727 84.34436 
L 159.045594 87.317427 
L 157.815135 90.437945 
L 156.182749 93.756137 
L 154.572256 96.552531 
L 151.033404 101.646172 
L 150.757733 102.032083 
L 147.153268 106.236125 
L 143.373948 110.164029 
L 140.928177 112.457223 
L 138.927441 114.301202 
L 135.264767 117.371253 
L 135.264767 117.371253 
" clip-path="url(#pfe961d09b8)" style="fill: none; stroke: #d62728; stroke-linecap: square"/>
   </g>
   <g id="line2d_30">
    <path d="M 160.548271 68.250442 
L 162.786176 65.790258 
L 163.68375 65.180392 
L 165.856226 62.635965 
L 167.030875 62.110341 
" clip-path="url(#pfe961d09b8)" style="fill: none; stroke: #9467bd; stroke-linecap: square"/>
   </g>
   <g id="line2d_31">
    <path d="M 133.301974 141.931658 
L 133.270864 149.947637 
L 133.301974 151.14181 
L 133.171952 157.281912 
L 132.941841 161.975804 
L 134.844923 163.422013 
L 138.983332 166.905475 
L 141.938841 169.562114 
L 145.078186 172.632165 
L 149.358625 177.419156 
L 151.400979 180.002442 
L 152.805881 181.842317 
L 155.163885 185.544466 
L 157.056339 189.082814 
L 158.263176 191.770339 
L 159.546027 195.441135 
L 160.188952 197.813203 
L 160.814373 201.549014 
L 161.029237 204.106422 
L 160.999906 207.377023 
L 160.714259 210.304603 
L 160.31379 212.747504 
L 159.740266 213.108141 
L 156.223489 215.035749 
L 153.829974 216.157509 
L 151.476816 216.897185 
L 150.846825 217.175957 
L 149.16707 217.422044 
L 147.357826 217.790804 
L 145.561908 217.907475 
L 144.706724 218.071541 
L 143.065423 217.888914 
L 141.265008 217.830184 
L 139.868674 217.549776 
L 138.318923 217.319063 
L 136.430792 216.721639 
L 135.439034 216.495641 
L 133.153204 215.500924 
L 132.426521 215.257452 
L 130.691888 214.254343 
L 128.895865 213.258362 
L 127.840514 212.538444 
L 125.904086 211.240316 
L 120.146319 206.370107 
L 116.646108 202.679741 
L 114.006218 199.660844 
L 109.431403 193.618077 
L 104.402917 195.693499 
L 98.655964 202.747649 
L 92.515863 208.82443 
L 87.752238 212.370452 
L 86.375762 213.349378 
L 81.393419 215.805908 
L 80.187244 216.391767 
L 78.606754 216.795633 
L 76.718404 217.358064 
L 74.869047 217.674483 
L 74.095559 217.891887 
L 72.34952 217.88752 
L 70.580983 217.990802 
L 69.489308 217.865101 
L 67.685195 217.774071 
L 65.874504 217.373982 
L 64.885407 217.27358 
L 62.858572 216.549249 
L 61.798332 216.283731 
L 60.692583 215.725713 
L 59.697488 216.550309 
L 58.745306 218.003854 
L 56.383237 219.62036 
L 56.383237 219.62036 
" clip-path="url(#pfe961d09b8)" style="fill: none; stroke: #8c564b; stroke-linecap: square"/>
   </g>
   <g id="line2d_32">
    <path d="M 60.600649 215.465034 
L 60.244233 214.546319 
L 59.925807 213.799329 
L 59.776693 213.480259 
L 59.773623 213.458892 
L 59.702427 213.061747 
L 59.532876 212.27863 
L 59.322668 211.458804 
L 59.216655 211.104227 
L 59.097155 210.755939 
L 58.962718 210.410208 
L 58.956112 210.135454 
L 58.897712 209.242362 
L 58.85744 208.874077 
L 58.801255 208.510057 
L 58.698243 207.996028 
L 58.535954 207.340157 
L 58.571367 207.087927 
L 58.606465 206.717298 
L 58.624415 206.34817 
L 58.625382 205.905044 
L 58.581888 204.929913 
L 58.548162 204.559405 
L 58.508509 204.270107 
L 58.528783 204.190151 
L 58.603275 203.829098 
L 58.771701 202.772785 
L 58.813438 202.404893 
L 58.838947 202.032653 
L 58.848227 201.656065 
L 58.839908 201.200056 
L 59.042806 200.622912 
L 59.17612 200.18701 
L 59.270373 199.826949 
L 59.35074 199.460413 
L 59.539341 198.402206 
L 59.57763 198.130005 
L 59.714544 197.843326 
L 59.863499 197.500628 
L 60.001427 197.150209 
L 60.355334 196.151417 
L 60.592238 195.40743 
L 60.691303 195.059955 
L 60.717608 195.014974 
L 60.900431 194.67997 
L 61.382088 193.732844 
L 61.816761 192.816946 
L 61.95223 192.511508 
L 62.03188 192.485786 
L 62.390707 192.359867 
L 63.264408 192.028017 
L 63.282948 192.020416 
L 64.327163 191.843857 
L 64.697101 191.770786 
L 65.062491 191.687963 
L 65.786794 191.50214 
L 66.847848 191.197273 
L 66.881982 191.186387 
L 67.218267 191.164963 
L 67.588113 191.130517 
L 68.191919 191.056231 
L 69.373663 190.874931 
L 69.735392 190.808306 
L 70.084849 190.733132 
L 70.096412 190.733569 
L 70.583393 190.73758 
L 71.905973 190.709199 
L 72.27518 190.690355 
L 72.645343 190.660569 
L 73.016485 190.619839 
L 74.085423 190.471399 
L 74.567605 190.516807 
L 74.940006 190.541718 
L 75.315062 190.556722 
L 75.692773 190.561817 
L 77.28327 190.541693 
L 77.699566 190.526344 
L 77.844058 190.54999 
L 78.223382 190.602932 
L 78.606664 190.647387 
L 80.23264 190.798413 
L 81.047267 190.856798 
L 81.478732 190.878981 
L 81.916025 190.892842 
L 82.243187 190.896932 
L 83.665049 191.142482 
L 84.854248 191.326494 
L 85.309316 191.389252 
L 85.771016 191.44538 
L 87.061204 191.581737 
L 87.761753 191.744096 
L 89.58303 192.13926 
L 90.077673 192.239907 
L 90.579595 192.335458 
L 92.872925 192.742846 
L 93.026226 192.768341 
L 95.874543 193.516522 
L 96.43673 193.65838 
L 97.006893 193.796519 
L 99.593922 194.398012 
L 101.265662 194.772058 
" clip-path="url(#pfe961d09b8)" style="fill: none; stroke: #e377c2; stroke-linecap: square"/>
   </g>
   <g id="line2d_33">
    <path d="M 61.33528 191.989904 
L 60.212897 190.485847 
L 58.138854 188.919853 
L 57.142847 187.107673 
" clip-path="url(#pfe961d09b8)" style="fill: none; stroke: #7f7f7f; stroke-linecap: square"/>
   </g>
   <g id="line2d_34">
    <path d="M 109.661677 193.242021 
L 111.261019 190.591583 
L 111.449046 190.275249 
L 111.634843 189.957876 
L 111.958635 189.396232 
L 112.679258 188.293532 
L 114.186032 185.953841 
L 114.628653 185.345029 
L 114.841982 185.047405 
L 115.053289 184.748367 
L 115.863682 183.584954 
L 118.193626 180.191703 
L 118.402662 179.882912 
L 118.507286 179.726142 
L 118.617215 179.579638 
L 119.162146 178.843353 
L 120.819601 176.572973 
L 122.149658 174.942634 
L 122.38877 174.645742 
L 122.62645 174.346805 
L 122.8627 174.045824 
L 125.890389 170.138702 
L 126.656532 169.244626 
L 126.917172 168.93688 
L 127.176645 168.626915 
L 127.435036 168.31463 
L 129.083732 166.298815 
L 131.599362 163.495827 
L 132.431874 162.558481 
L 132.722396 162.227997 
" clip-path="url(#pfe961d09b8)" style="fill: none; stroke: #bcbd22; stroke-linecap: square"/>
   </g>
   <g id="line2d_35">
    <path d="M 163.127028 215.577122 
L 163.186155 215.612874 
L 166.197079 218.653074 
L 166.284924 218.682925 
" clip-path="url(#pfe961d09b8)" style="fill: none; stroke: #17becf; stroke-linecap: square"/>
   </g>
   <g id="line2d_36">
    <path d="M 133.270864 140.737485 
L 133.301974 141.931658 
" clip-path="url(#pfe961d09b8)" style="fill: none; stroke: #1f77b4; stroke-linecap: square"/>
   </g>
   <g id="line2d_37">
    <path d="M 163.127028 215.577122 
L 160.31379 212.747504 
" clip-path="url(#pfe961d09b8)" style="fill: none; stroke: #ff7f0e; stroke-linecap: square"/>
   </g>
   <g id="line2d_38">
    <path d="M 101.265662 194.772058 
L 104.402917 195.693499 
" clip-path="url(#pfe961d09b8)" style="fill: none; stroke: #2ca02c; stroke-linecap: square"/>
   </g>
   <g id="line2d_39">
    <path d="M 61.33528 191.989904 
L 61.95223 192.511508 
" clip-path="url(#pfe961d09b8)" style="fill: none; stroke: #d62728; stroke-linecap: square"/>
   </g>
   <g id="line2d_40">
    <path d="M 109.661677 193.242021 
L 109.431403 193.618077 
" clip-path="url(#pfe961d09b8)" style="fill: none; stroke: #9467bd; stroke-linecap: square"/>
   </g>
   <g id="line2d_41">
    <path d="M 135.264767 117.371253 
L 132.936071 119.163357 
" clip-path="url(#pfe961d09b8)" style="fill: none; stroke: #8c564b; stroke-linecap: square"/>
   </g>
   <g id="line2d_42">
    <path d="M 160.548271 68.250442 
L 160.324421 68.423758 
" clip-path="url(#pfe961d09b8)" style="fill: none; stroke: #e377c2; stroke-linecap: square"/>
   </g>
   <g id="line2d_43">
    <path d="M 61.056553 89.485066 
L 61.98143 88.630194 
" clip-path="url(#pfe961d09b8)" style="fill: none; stroke: #7f7f7f; stroke-linecap: square"/>
   </g>
   <g id="line2d_44">
    <path d="M 102.685027 85.980732 
L 104.432758 85.453308 
" clip-path="url(#pfe961d09b8)" style="fill: none; stroke: #bcbd22; stroke-linecap: square"/>
   </g>
   <g id="line2d_45">
    <path d="M 110.595315 85.863166 
L 109.424499 87.509599 
" clip-path="url(#pfe961d09b8)" style="fill: none; stroke: #17becf; stroke-linecap: square"/>
   </g>
   <g id="line2d_46">
    <path d="M 132.722396 162.227997 
L 132.941841 161.975804 
" clip-path="url(#pfe961d09b8)" style="fill: none; stroke: #1f77b4; stroke-linecap: square"/>
   </g>
   <g id="line2d_47">
    <path d="M 60.600649 215.465034 
L 60.692583 215.725713 
" clip-path="url(#pfe961d09b8)" style="fill: none; stroke: #ff7f0e; stroke-linecap: square"/>
   </g>
   <g id="line2d_48">
    <path d="M 60.613629 65.566974 
L 60.664956 65.402355 
" clip-path="url(#pfe961d09b8)" style="fill: none; stroke: #2ca02c; stroke-linecap: square"/>
   </g>
   <g id="line2d_49">
    <path d="M 293.468652 140.570945 
L 256.643331 140.564153 
L 253.754098 145.495062 
L 253.764655 191.165233 
L 249.406453 197.101779 
L 246.800868 200.445869 
L 243.287714 204.367729 
L 239.573848 207.954656 
L 235.90303 210.975498 
L 232.748252 213.19883 
L 229.836126 214.781672 
L 228.933926 215.269167 
L 226.491429 216.249691 
L 225.581588 216.655783 
L 224.188951 216.952422 
L 222.075896 217.610127 
L 219.906326 217.796136 
L 218.527109 218.045186 
L 216.802303 217.918101 
L 215.643344 217.976622 
L 215.182482 218.0442 
L 213.508442 217.638423 
L 211.268216 217.30734 
L 209.004268 216.596418 
L 208.123284 216.4054 
L 206.612086 215.645697 
L 203.971272 214.424362 
L 201.111863 212.734486 
L 200.537481 209.318517 
L 200.386436 204.734915 
L 200.637338 201.331951 
L 201.217322 197.969018 
L 202.172354 194.487041 
L 203.404552 191.18711 
L 205.098404 187.643297 
L 207.149416 184.12319 
L 209.911335 180.151824 
L 211.497487 178.024722 
L 215.029003 174.041922 
L 217.955818 170.998414 
L 221.748938 167.48526 
L 226.695326 163.356349 
L 230.411712 160.458951 
L 237.108358 155.727771 
L 242.565493 152.173908 
L 246.128706 149.919489 
L 252.662782 146.098806 
L 252.662782 146.098806 
" clip-path="url(#pfe961d09b8)" style="fill: none; stroke: #d62728; stroke-linecap: square"/>
   </g>
   <g id="line2d_50">
    <path d="M 200.62375 213.156262 
L 197.616711 216.347178 
L 197.026382 216.669416 
L 194.103557 219.96097 
" clip-path="url(#pfe961d09b8)" style="fill: none; stroke: #9467bd; stroke-linecap: square"/>
   </g>
   <g id="line2d_51">
    <path d="M 253.827177 191.262621 
L 258.211496 197.228028 
L 260.853485 200.593143 
L 264.366639 204.498587 
L 268.246616 208.20926 
L 271.712317 211.05133 
L 274.906101 213.284547 
L 277.786016 214.830627 
L 278.419255 215.239876 
L 280.431595 215.966628 
L 282.033827 216.69265 
L 283.652317 217.037396 
L 285.759526 217.637646 
L 287.328583 217.740715 
L 289.464185 218.003903 
L 291.236143 217.913484 
L 292.471871 218.034257 
L 294.111424 217.626034 
L 296.353498 217.290009 
L 298.61338 216.562715 
L 299.734429 216.243534 
L 301.00819 215.605935 
L 303.65069 214.375301 
L 307.519835 211.96863 
L 310.674302 209.601116 
L 314.205343 206.445946 
L 317.658091 202.870499 
L 320.577104 199.564189 
L 324.090258 195.017925 
L 328.505791 188.532763 
L 331.116566 184.462486 
L 335.131494 177.505559 
L 333.284858 171.615901 
L 330.876025 165.327102 
L 329.060933 161.076439 
L 325.601398 154.05013 
L 322.724128 148.865045 
L 321.658548 147.023822 
L 317.570166 140.570023 
L 295.462861 140.566919 
L 295.462861 140.566919 
" clip-path="url(#pfe961d09b8)" style="fill: none; stroke: #8c564b; stroke-linecap: square"/>
   </g>
   <g id="line2d_52">
    <path d="M 317.955631 139.997514 
L 322.340504 132.971206 
L 326.149987 126.026904 
L 326.194511 125.944898 
L 327.954343 122.431744 
L 330.938196 115.674097 
L 331.054947 115.405436 
L 333.069263 110.069186 
L 334.399039 106.043855 
L 335.122793 103.65389 
L 333.213043 100.232589 
L 328.926021 93.264424 
L 326.336123 89.290665 
L 322.374347 83.910341 
L 319.438014 80.212902 
L 315.92486 76.340305 
L 312.354955 72.921615 
L 308.893137 70.073256 
L 304.028396 67.006813 
L 302.764445 66.316974 
L 301.585343 65.679129 
L 300.135811 65.16982 
L 298.162111 64.336995 
L 296.17308 63.9046 
L 294.831061 63.441982 
L 293.241302 63.392967 
L 290.60966 63.144831 
L 288.966898 63.230204 
L 287.521703 63.232402 
L 286.456085 63.499654 
L 284.197103 63.803041 
L 281.969204 64.589686 
L 280.793319 64.867084 
L 279.554543 65.521183 
L 276.896673 66.743168 
L 273.033544 69.159173 
L 269.874162 71.528438 
L 266.344735 74.687116 
L 262.30721 78.947471 
L 259.714395 81.91359 
L 253.754807 90.028 
L 252.688087 88.403151 
L 248.201103 82.488226 
L 244.866977 78.555923 
L 240.536198 74.141139 
L 238.63547 72.307435 
L 233.3151 68.422127 
L 231.230782 67.070956 
L 229.730409 66.357391 
L 227.949565 65.401982 
L 226.253721 64.846663 
L 224.045661 64.059932 
L 222.433543 63.752636 
L 221.013131 63.322669 
L 219.741414 63.327135 
L 218.098466 63.137895 
L 217.556546 63.008027 
L 215.596017 63.26579 
L 213.781824 63.319868 
L 211.98672 63.768692 
L 210.223883 64.083574 
L 208.971643 64.589761 
L 206.504644 65.461003 
L 203.890164 66.722042 
L 203.50393 66.874128 
L 201.123292 68.430097 
L 199.990776 67.062468 
L 198.086702 65.603792 
L 196.477622 63.396573 
L 194.230471 62.090637 
L 194.230471 62.090637 
" clip-path="url(#pfe961d09b8)" style="fill: none; stroke: #e377c2; stroke-linecap: square"/>
   </g>
   <g id="line2d_53">
    <path d="M 201.114175 68.463145 
L 200.91949 69.116946 
L 200.904347 69.281124 
L 200.739654 70.739396 
L 200.690424 71.105281 
L 200.63352 71.469109 
L 200.52006 72.104712 
L 200.414537 72.6301 
L 200.42583 73.662792 
L 200.421763 74.029994 
L 200.409607 74.396488 
L 200.383239 74.872854 
L 200.284663 76.143254 
L 200.342723 76.570904 
L 200.383993 76.934852 
L 200.417215 77.299503 
L 200.442391 77.664858 
L 200.526369 79.459586 
L 200.531351 79.656408 
L 200.582982 79.875313 
L 200.659518 80.233881 
L 200.728496 80.594474 
L 201.011919 82.267743 
L 201.102333 82.877144 
L 201.13971 83.169562 
L 201.166727 83.251128 
L 201.275921 83.604222 
L 201.725451 85.166993 
L 201.94332 85.98253 
L 202.037564 86.363538 
L 202.110341 86.682716 
L 202.135336 86.742075 
L 202.719486 88.202519 
L 203.125443 89.270486 
L 203.262856 89.6509 
L 203.39506 90.036523 
L 203.446837 90.19587 
L 204.064839 91.417709 
L 204.745685 92.816452 
L 204.924978 93.198773 
L 205.100257 93.586827 
L 205.153403 93.709024 
L 205.851739 94.862488 
L 206.943216 96.720611 
L 207.165602 97.11011 
L 207.2278 97.222178 
L 207.403326 97.466715 
L 208.200232 98.605382 
L 209.655134 100.735332 
L 209.944038 101.078875 
L 210.230059 101.426156 
L 210.514624 101.77887 
L 211.282698 102.750522 
L 212.443765 104.248486 
L 214.077181 106.017153 
L 214.412443 106.38631 
L 214.747215 106.761069 
L 215.366684 107.465931 
L 215.622479 107.76164 
L 219.152615 111.274794 
L 219.866698 111.898639 
L 220.265114 112.251369 
L 220.663972 112.609147 
L 221.063271 112.971971 
L 223.036568 114.787949 
L 227.318303 118.301103 
L 227.980397 118.791211 
L 228.727441 119.350125 
L 229.202815 119.709508 
L 229.679437 120.073548 
L 231.935578 121.814257 
L 236.929766 125.327411 
L 239.05837 126.703338 
L 241.514038 128.304274 
L 242.096582 128.68714 
L 242.328171 128.840565 
L 242.669845 129.050103 
L 248.01322 132.353719 
L 253.761468 135.662626 
L 253.756986 133.603175 
L 253.761444 128.484622 
L 253.761034 128.315037 
L 253.761446 127.846241 
L 253.761032 127.676656 
L 253.761448 127.20786 
L 253.76103 127.038275 
L 253.766419 121.02668 
L 253.756308 117.388514 
L 253.761453 112.774723 
L 253.761027 112.637332 
L 253.761455 112.256895 
L 253.761026 112.119504 
L 253.761458 111.739067 
L 253.761025 111.601676 
L 253.764393 108.657602 
L 253.75574 106.075158 
L 253.761462 101.790937 
L 253.761023 101.672245 
L 253.761464 101.343939 
L 253.761021 101.225246 
L 253.761466 100.89694 
L 253.76102 100.778247 
L 253.762937 99.373545 
L 253.75519 97.369108 
L 253.761469 93.237307 
L 253.761017 93.129905 
L 253.76147 92.833294 
L 253.761015 92.725892 
L 253.761471 92.429281 
L 253.761013 92.321879 
L 253.761786 91.821855 
L 253.754606 90.149806 
" clip-path="url(#pfe961d09b8)" style="fill: none; stroke: #7f7f7f; stroke-linecap: square"/>
   </g>
   <g id="line2d_54">
    <path d="M 253.872864 135.866873 
L 254.838475 137.523438 
L 255.913456 139.380027 
" clip-path="url(#pfe961d09b8)" style="fill: none; stroke: #bcbd22; stroke-linecap: square"/>
   </g>
   <g id="line2d_55">
    <path d="M 337.003784 101.754956 
L 337.436582 101.352819 
L 340.516938 98.240512 
L 340.951241 97.839665 
L 344.030092 94.725819 
L 344.466215 94.326511 
L 347.543246 91.210801 
L 347.981615 90.813357 
L 351.056401 87.695342 
L 351.497608 87.300203 
L 354.569555 84.179263 
L 355.014467 83.787049 
L 358.082709 80.662275 
L 358.532659 80.273895 
L 361.595863 77.143878 
L 362.053061 76.760741 
L 365.109017 73.62312 
L 365.577536 73.247587 
L 368.622171 70.097942 
L 369.110858 69.734433 
L 372.135325 66.56291 
L 372.670046 66.221279 
L 375.648479 62.997508 
L 376.393836 62.708125 
" clip-path="url(#pfe961d09b8)" style="fill: none; stroke: #17becf; stroke-linecap: square"/>
   </g>
   <g id="line2d_56">
    <path d="M 336.317363 178.642209 
L 338.142874 180.540678 
L 339.833701 182.155363 
L 341.656028 184.057288 
L 343.35066 185.668517 
L 345.169182 187.574604 
L 346.868444 189.181671 
L 348.682336 191.092871 
L 350.387351 192.694825 
L 352.19549 194.612455 
L 353.90785 196.207979 
L 355.708644 198.133939 
L 357.430704 199.721133 
L 359.221799 201.658314 
L 360.957264 203.234287 
L 362.734953 205.187398 
L 364.490154 206.747441 
L 366.248107 208.724944 
L 368.035247 210.260595 
L 369.761261 212.280135 
L 371.608918 213.77375 
L 373.274415 215.882962 
L 375.280584 217.286904 
L 376.787569 219.720259 
" clip-path="url(#pfe961d09b8)" style="fill: none; stroke: #1f77b4; stroke-linecap: square"/>
   </g>
   <g id="line2d_57">
    <path d="M 293.468652 140.570945 
L 295.462861 140.566919 
" clip-path="url(#pfe961d09b8)" style="fill: none; stroke: #ff7f0e; stroke-linecap: square"/>
   </g>
   <g id="line2d_58">
    <path d="M 317.955631 139.997514 
L 317.570166 140.570023 
" clip-path="url(#pfe961d09b8)" style="fill: none; stroke: #2ca02c; stroke-linecap: square"/>
   </g>
   <g id="line2d_59">
    <path d="M 337.003784 101.754956 
L 335.122793 103.65389 
" clip-path="url(#pfe961d09b8)" style="fill: none; stroke: #d62728; stroke-linecap: square"/>
   </g>
   <g id="line2d_60">
    <path d="M 253.754098 145.495062 
L 252.662782 146.098806 
" clip-path="url(#pfe961d09b8)" style="fill: none; stroke: #9467bd; stroke-linecap: square"/>
   </g>
   <g id="line2d_61">
    <path d="M 253.872864 135.866873 
L 253.761468 135.662626 
" clip-path="url(#pfe961d09b8)" style="fill: none; stroke: #8c564b; stroke-linecap: square"/>
   </g>
   <g id="line2d_62">
    <path d="M 255.913456 139.380027 
L 256.643331 140.564153 
" clip-path="url(#pfe961d09b8)" style="fill: none; stroke: #e377c2; stroke-linecap: square"/>
   </g>
   <g id="line2d_63">
    <path d="M 253.827177 191.262621 
L 253.764655 191.165233 
" clip-path="url(#pfe961d09b8)" style="fill: none; stroke: #7f7f7f; stroke-linecap: square"/>
   </g>
   <g id="line2d_64">
    <path d="M 253.754807 90.028 
L 253.754606 90.149806 
" clip-path="url(#pfe961d09b8)" style="fill: none; stroke: #bcbd22; stroke-linecap: square"/>
   </g>
   <g id="line2d_65">
    <path d="M 336.317363 178.642209 
L 335.131494 177.505559 
" clip-path="url(#pfe961d09b8)" style="fill: none; stroke: #17becf; stroke-linecap: square"/>
   </g>
   <g id="line2d_66">
    <path d="M 200.62375 213.156262 
L 201.121728 212.807531 
" clip-path="url(#pfe961d09b8)" style="fill: none; stroke: #1f77b4; stroke-linecap: square"/>
   </g>
   <g id="line2d_67">
    <path d="M 201.114175 68.463145 
L 201.123292 68.430097 
" clip-path="url(#pfe961d09b8)" style="fill: none; stroke: #ff7f0e; stroke-linecap: square"/>
   </g>
   <g id="patch_3">
    <path d="M 38.482813 273.623059 
L 38.482813 7.511059 
" style="fill: none; stroke: #000000; stroke-width: 0.8; stroke-linejoin: miter; stroke-linecap: square"/>
   </g>
   <g id="patch_4">
    <path d="M 395.602813 273.623059 
L 395.602813 7.511059 
" style="fill: none; stroke: #000000; stroke-width: 0.8; stroke-linejoin: miter; stroke-linecap: square"/>
   </g>
   <g id="patch_5">
    <path d="M 38.482813 273.623059 
L 395.602813 273.623059 
" style="fill: none; stroke: #000000; stroke-width: 0.8; stroke-linejoin: miter; stroke-linecap: square"/>
   </g>
   <g id="patch_6">
    <path d="M 38.482813 7.511059 
L 395.602813 7.511059 
" style="fill: none; stroke: #000000; stroke-width: 0.8; stroke-linejoin: miter; stroke-linecap: square"/>
   </g>
  </g>
 </g>
 <defs>
  <clipPath id="pfe961d09b8">
   <rect x="38.482813" y="7.511059" width="357.12" height="266.112"/>
  </clipPath>
 </defs>
</svg>
